<!--
  URDF Studio mascot — a little robot arm that waves, blinks, and tosses
  sparkles. SMIL animations only (works inline in GitHub markdown). Light
  and dark friendly colours; transparent background.
-->
<svg xmlns="http://www.w3.org/2000/svg" viewBox="0 0 420 200" width="420" height="200" role="img" aria-label="A small robot arm waving with floating sparkles">
  <title>URDF Studio mascot</title>

  <defs>
    <linearGradient id="armA" x1="0" y1="0" x2="0" y2="1">
      <stop offset="0" stop-color="#aecbfa"/>
      <stop offset="1" stop-color="#1a73e8"/>
    </linearGradient>
    <linearGradient id="armB" x1="0" y1="0" x2="0" y2="1">
      <stop offset="0" stop-color="#c58af9"/>
      <stop offset="1" stop-color="#a142f4"/>
    </linearGradient>
    <linearGradient id="headG" x1="0" y1="0" x2="0" y2="1">
      <stop offset="0" stop-color="#fde293"/>
      <stop offset="1" stop-color="#f29900"/>
    </linearGradient>
    <radialGradient id="cheek" cx="0.5" cy="0.5" r="0.5">
      <stop offset="0" stop-color="#fad2cf" stop-opacity="0.9"/>
      <stop offset="1" stop-color="#fad2cf" stop-opacity="0"/>
    </radialGradient>
  </defs>

  <!-- ground line -->
  <line x1="40" y1="180" x2="380" y2="180"
        stroke="#80868b" stroke-width="1.2"
        stroke-dasharray="4 5" opacity="0.45"/>

  <!-- base plate + post -->
  <g>
    <rect x="190" y="160" width="40" height="20" rx="5" fill="#5f6368"/>
    <rect x="200" y="150" width="20" height="12" rx="3" fill="#80868b"/>
  </g>

  <!-- arm assembly. Origin = base joint at (210, 150). -->
  <g transform="translate(210 150)">
    <animateTransform attributeName="transform" type="rotate"
                      values="-10;22;-10" dur="4.5s"
                      keyTimes="0;0.5;1"
                      calcMode="spline" keySplines="0.4 0 0.2 1; 0.4 0 0.2 1"
                      repeatCount="indefinite" additive="sum"/>

    <!-- lower-arm segment -->
    <rect x="-9" y="-62" width="18" height="62" rx="9" fill="url(#armA)"/>
    <!-- screws / detail dots -->
    <circle cx="0" cy="-12" r="1.4" fill="#fff" opacity="0.55"/>
    <circle cx="0" cy="-50" r="1.4" fill="#fff" opacity="0.55"/>
    <!-- base joint cap -->
    <circle cx="0" cy="0" r="7" fill="#aecbfa" stroke="#1a73e8" stroke-width="2"/>
    <circle cx="0" cy="0" r="2.2" fill="#1a73e8"/>

    <!-- upper-arm assembly. Origin = elbow joint at top of the lower arm. -->
    <g transform="translate(0 -62)">
      <animateTransform attributeName="transform" type="rotate"
                        values="-18;30;-18" dur="3.2s"
                        keyTimes="0;0.5;1"
                        calcMode="spline" keySplines="0.4 0 0.2 1; 0.4 0 0.2 1"
                        repeatCount="indefinite" additive="sum"/>

      <!-- elbow joint -->
      <circle cx="0" cy="0" r="6" fill="#c58af9" stroke="#a142f4" stroke-width="2"/>
      <circle cx="0" cy="0" r="2" fill="#a142f4"/>

      <!-- upper-arm segment -->
      <rect x="-8" y="-56" width="16" height="56" rx="8" fill="url(#armB)"/>
      <circle cx="0" cy="-12" r="1.2" fill="#fff" opacity="0.55"/>
      <circle cx="0" cy="-44" r="1.2" fill="#fff" opacity="0.55"/>

      <!-- the head: a friendly little orange ball that blinks -->
      <g transform="translate(0 -68)">
        <!-- cute body wobble -->
        <animateTransform attributeName="transform" type="translate"
                          values="0,-68; 0,-71; 0,-68" dur="2.4s"
                          repeatCount="indefinite" additive="sum"/>
        <!-- head fill -->
        <circle cx="0" cy="0" r="14" fill="url(#headG)" stroke="#e37400" stroke-width="1.5"/>
        <!-- cheek blush -->
        <ellipse cx="-6" cy="3" rx="4" ry="2.5" fill="url(#cheek)"/>
        <ellipse cx="6"  cy="3" rx="4" ry="2.5" fill="url(#cheek)"/>
        <!-- eyes: blink once every cycle -->
        <ellipse cx="-4" cy="-1" rx="1.6" ry="2.2" fill="#202124">
          <animate attributeName="ry" values="2.2;2.2;0.2;2.2" keyTimes="0;0.85;0.9;1" dur="4s" repeatCount="indefinite"/>
        </ellipse>
        <ellipse cx="4"  cy="-1" rx="1.6" ry="2.2" fill="#202124">
          <animate attributeName="ry" values="2.2;2.2;0.2;2.2" keyTimes="0;0.85;0.9;1" dur="4s" repeatCount="indefinite"/>
        </ellipse>
        <!-- smile -->
        <path d="M -4 4 Q 0 7 4 4" stroke="#202124" stroke-width="1.4" stroke-linecap="round" fill="none"/>
        <!-- little antenna -->
        <line x1="0" y1="-14" x2="0" y2="-19" stroke="#e37400" stroke-width="1.5" stroke-linecap="round"/>
        <circle cx="0" cy="-21" r="2" fill="#fbbc04">
          <animate attributeName="r" values="2;2.8;2" dur="1.6s" repeatCount="indefinite"/>
        </circle>
      </g>
    </g>
  </g>

  <!-- floating sparkles, slightly off-tempo -->
  <g fill="#fbbc04">
    <path d="M 80 50 l 2 0 l 0 -6 l 1.4 0 l 0 6 l 6 0 l 0 1.4 l -6 0 l 0 6 l -1.4 0 l 0 -6 l -6 0 z" opacity="0">
      <animate attributeName="opacity" values="0;0.9;0" dur="2.6s" repeatCount="indefinite" begin="0s"/>
      <animateTransform attributeName="transform" type="translate" values="0,4;0,-4;0,4" dur="2.6s" repeatCount="indefinite"/>
    </path>
  </g>
  <g fill="#34a853">
    <path d="M 340 60 l 2 0 l 0 -5 l 1.2 0 l 0 5 l 5 0 l 0 1.2 l -5 0 l 0 5 l -1.2 0 l 0 -5 l -5 0 z" opacity="0">
      <animate attributeName="opacity" values="0;0.9;0" dur="2.6s" repeatCount="indefinite" begin="0.7s"/>
      <animateTransform attributeName="transform" type="translate" values="0,-4;0,4;0,-4" dur="2.6s" repeatCount="indefinite"/>
    </path>
  </g>
  <g fill="#ea4335">
    <path d="M 330 130 l 2 0 l 0 -5 l 1.2 0 l 0 5 l 5 0 l 0 1.2 l -5 0 l 0 5 l -1.2 0 l 0 -5 l -5 0 z" opacity="0">
      <animate attributeName="opacity" values="0;0.9;0" dur="2.6s" repeatCount="indefinite" begin="1.4s"/>
      <animateTransform attributeName="transform" type="translate" values="0,3;0,-3;0,3" dur="2.6s" repeatCount="indefinite"/>
    </path>
  </g>
  <g fill="#4285f4">
    <path d="M 70 130 l 2 0 l 0 -5 l 1.2 0 l 0 5 l 5 0 l 0 1.2 l -5 0 l 0 5 l -1.2 0 l 0 -5 l -5 0 z" opacity="0">
      <animate attributeName="opacity" values="0;0.9;0" dur="2.6s" repeatCount="indefinite" begin="2s"/>
      <animateTransform attributeName="transform" type="translate" values="0,-3;0,3;0,-3" dur="2.6s" repeatCount="indefinite"/>
    </path>
  </g>
</svg>
